<svg t="1713856424818" class="icon" viewBox="0 0 1024 1024" version="1.1" xmlns="http://www.w3.org/2000/svg" p-id="3431" width="128" height="128"><path d="M979.806604 599.955572a132.691596 132.691596 0 0 0-70.516105-88.145131c-14.027397-7.392817-28.623473-13.458719-42.65087-20.472418-6.63458-3.22251-12.890041-7.203258-18.955942-10.994447a55.161792 55.161792 0 0 1-4.359867-3.791188 170.60348 170.60348 0 0 0 81.510552-33.362458l-4.928545 2.085153a215.529063 215.529063 0 0 1-61.606813 21.988893c-5.497223 0.947797-10.994447 0.947797-16.491669 1.516476s-7.392817-1.706035-9.288412-5.876342a65.018882 65.018882 0 0 1-1.326916-47.389856c1.895594-6.255461 4.359867-12.131803 6.63458-18.955942a151.647538 151.647538 0 0 0-66.156239-193.72973 257.611255 257.611255 0 0 0-55.351351-24.453165 105.963717 105.963717 0 0 1-53.455757-34.878934c-11.373565-14.027397-21.988893-28.813032-32.225102-43.598667A225.765272 225.765272 0 0 0 477.474135 3.980748c-8.909293-1.516475-18.008145-2.464272-27.106998-3.980748h-39.049241a14.785635 14.785635 0 0 1-3.980748 0 361.868937 361.868937 0 0 0-107.859311 24.832284A284.339134 284.339134 0 0 0 196.357511 91.93632a125.298778 125.298778 0 0 0-33.931136 59.711218 80.373195 80.373195 0 0 0 0.947797 39.617919c1.895594-6.255461 3.41207-11.373565 5.307664-16.49167a163.589782 163.589782 0 0 1 85.491299-91.367641 278.652351 278.652351 0 0 1 124.350981-28.433913 270.501296 270.501296 0 0 1 91.178082 13.269159 234.864124 234.864124 0 0 1 84.922622 54.782673l59.332099 56.867827c-11.942244-5.497223-23.694928-11.563125-35.826731-16.49167a406.98408 406.98408 0 0 1-84.353943-45.494261 228.987782 228.987782 0 0 0-148.614587-41.892633 508.019252 508.019252 0 0 0-87.576453 15.733432 172.309515 172.309515 0 0 0-41.892633 21.988893c1.326916 2.653832 2.274713 4.928545 3.601629 7.013699a102.551648 102.551648 0 0 0 36.774528 35.826731 300.262125 300.262125 0 0 0 127.95261 39.997038c28.623473 3.22251 56.867827 3.791188 86.249538 6.44502a453.236579 453.236579 0 0 1 111.081821 23.505369 160.93595 160.93595 0 0 1 63.502407 37.911884c3.980748 4.170307 7.203258 8.719733 10.804887 13.26916-8.340615-3.41207-15.733432-7.582377-23.505369-10.804887a448.308034 448.308034 0 0 0-110.892262-28.623473c-29.57127-4.738986-59.332099-8.530174-89.092928-13.648278s-55.161792-10.804887-82.837468-15.733432a454.942614 454.942614 0 0 1-69.568308-15.543873 106.342836 106.342836 0 0 1-69.568308-63.881525l-1.326916-1.706035c-4.549426 6.44502-8.719733 12.700481-13.458719 18.955942a18.955942 18.955942 0 0 0-4.170307 16.112551 93.073676 93.073676 0 0 0 33.172899 59.900777 219.130692 219.130692 0 0 0 66.535357 40.186598 322.251018 322.251018 0 0 0 119.991114 26.1592c18.955942 0 37.911884 0 56.867827 1.326916a384.805628 384.805628 0 0 1 90.609404 12.131803 148.045909 148.045909 0 0 1 109.186227 101.414291c6.255461 18.955942 10.236209 40.186598 14.785635 60.469456a187.284709 187.284709 0 0 0 12.890041 46.06294 140.084413 140.084413 0 0 0 55.161792 55.54091c6.065902 3.601629 12.321362 6.63458 18.955942 10.425769a105.01592 105.01592 0 0 1-56.867826-30.898186 167.570529 167.570529 0 0 1-35.068494-60.848575c-7.771936-22.557571-14.216957-45.494261-22.93669-67.672714a148.614587 148.614587 0 0 0-112.408737-97.812662 639.95261 639.95261 0 0 0-84.922621-9.66753c-28.623473-2.085154-56.867827-3.032951-85.680859-7.392818a266.899667 266.899667 0 0 1-189.559423-123.971862L179.297163 174.773787a49.28545 49.28545 0 0 0 0 5.307664 109.944465 109.944465 0 0 0 27.865235 51.560163 249.270641 249.270641 0 0 0 117.337283 71.653462 532.282858 532.282858 0 0 0 117.526842 16.30211 702.886338 702.886338 0 0 1 93.263236 9.098853 145.012958 145.012958 0 0 1 107.290633 75.823768c0 1.326916 1.137357 2.653832 1.706035 3.791189a2.843391 2.843391 0 0 1-2.085154-1.706035 151.647538 151.647538 0 0 0-89.092929-61.796372 435.986672 435.986672 0 0 0-103.878563-10.236208h-77.340245a118.09552 118.09552 0 0 1-54.593113-12.890041c-22.93669-12.700481-46.06294-25.780081-67.672714-40.755276a201.501666 201.501666 0 0 1-75.823769-93.263236 12.510922 12.510922 0 0 0-1.706035-2.274713 164.727138 164.727138 0 0 0 0 26.917438 118.474639 118.474639 0 0 0 25.969641 56.867827 257.611255 257.611255 0 0 0 85.680859 69.189189 33.362458 33.362458 0 0 1 7.961496 4.549426 292.869308 292.869308 0 0 0 64.639763 39.617919 46.442058 46.442058 0 0 1 12.321362 8.151056 190.696779 190.696779 0 0 1 25.400963 28.623472 178.185857 178.185857 0 0 1 27.106997 130.416883 212.116994 212.116994 0 0 0-2.653832 61.038134 72.601259 72.601259 0 0 0 36.774528 58.194743 6.44502 6.44502 0 0 1 3.980748 7.392817 90.419845 90.419845 0 0 0 24.453166 76.771566 118.474639 118.474639 0 0 0 86.249537 36.20585 64.639763 64.639763 0 0 0 71.084783-68.99963 42.65087 42.65087 0 0 0-41.323954-37.911884 14.785635 14.785635 0 0 0-14.975194 18.955942l1.326916-2.843391c1.895594-3.601629 3.980748-7.582377 8.909293-7.392818s7.203258 4.170307 8.719733 8.340615a30.708626 30.708626 0 0 1 0 23.884487 55.540911 55.540911 0 0 1-46.821177 32.98334 44.356905 44.356905 0 0 1-45.683821-25.969641 92.125879 92.125879 0 0 1-11.752684-50.043688c0-4.170307 0.947797-6.065902 5.497223-7.203258a88.903369 88.903369 0 0 0 32.225102-16.112551 105.584598 105.584598 0 0 1-37.911885 9.85709c2.843391-14.785635 4.738986-29.002592 8.719734-42.65087 7.013699-25.400963 15.733432-50.233247 23.126249-75.823769a125.867456 125.867456 0 0 0-32.79378-134.018512c-3.032951-3.032951-6.44502-5.876342-9.66753-8.909292a5.686783 5.686783 0 0 1 3.980748 0c12.321362 5.876342 24.453165 11.563125 36.584968 17.818585a10.425768 10.425768 0 0 1 4.359867 6.065902c3.032951 14.596076 5.497223 29.38171 8.719733 43.977786a435.986672 435.986672 0 0 0 41.134395 117.905961 209.463162 209.463162 0 0 0 71.274343 83.027027c17.249907 10.804887 34.689374 21.230655 52.697519 30.708626 24.453165 12.890041 49.664569 24.074047 73.928175 37.911885a66.724917 66.724917 0 0 1 34.499815 70.705664 116.579045 116.579045 0 0 1-39.238801 69.947427c-32.98334 29.38171-66.724917 56.867827-100.466494 86.439097a7.582377 7.582377 0 0 0-2.653831 8.719733 54.024435 54.024435 0 0 0 32.983339 37.911885 206.998889 206.998889 0 0 0 21.041096 6.44502h21.609774l32.98334-9.288412c3.41207-1.137357 6.63458-3.032951 10.615327-4.738985l-10.994446-4.359867a30.519067 30.519067 0 0 1-18.955942-43.219548 156.955202 156.955202 0 0 1 28.813032-45.494262c11.563125-14.406516 23.315809-28.623473 34.499815-43.409108a139.515735 139.515735 0 0 0 11.942243-20.661977 6.255461 6.255461 0 0 1 7.013699-4.170307 108.996668 108.996668 0 0 0 89.092928-39.997038 100.276934 100.276934 0 0 0 18.955943-50.422806 304.811551 304.811551 0 0 0 1.706034-34.878934 7.203258 7.203258 0 0 1 1.516476-4.549426 124.350981 124.350981 0 0 0 27.106997-65.77712 22.93669 22.93669 0 0 1 1.706035-3.791188v-24.453166c-1.516475-7.961496-2.464272-16.112551-4.549426-23.884487z m-487.546834-94.590152a225.386153 225.386153 0 0 1-7.392818 60.659015c-8.340615 31.466864-17.249907 62.933728-25.969641 94.779712a36.584969 36.584969 0 0 1-18.955942-18.955943 108.617549 108.617549 0 0 1-10.046649-35.258052 217.803776 217.803776 0 0 1 2.274713-67.483155 189.559422 189.559422 0 0 0-3.032951-84.164383 113.735653 113.735653 0 0 0-29.192151-49.28545 32.225102 32.225102 0 0 1-3.601629-3.601629v-1.516475a287.182525 287.182525 0 0 1 65.77712 37.911884 85.30174 85.30174 0 0 1 30.139948 66.914476z m154.11181-299.503887a4.928545 4.928545 0 0 1-2.085153-3.41207 355.423917 355.423917 0 0 1 33.552017 18.955942 237.517956 237.517956 0 0 1 84.543503 100.845613 84.353943 84.353943 0 0 1 7.013698 36.774528c-1.137357 25.969641-1.895594 52.128841-2.843391 79.235839a71.843021 71.843021 0 0 1-22.178452-34.499815 506.313217 506.313217 0 0 1-10.425769-49.854128 172.309515 172.309515 0 0 0-21.988893-70.705665 390.113291 390.113291 0 0 0-65.018882-77.340244zM554.62482 454.942614l-2.464273-15.354313 5.497223 4.549426a194.298408 194.298408 0 0 1 55.730471 83.785264 249.649759 249.649759 0 0 0 54.213994 90.609404c7.013699 7.203258 14.785635 13.648278 21.420215 18.955943-69.757867-41.513514-120.938912-98.38134-134.39763-182.545724z m128.142169 70.516105c-7.961496-22.93669-14.027397-46.631618-20.851536-69.947427l0.947797-0.568678c4.549426 13.458719 8.909293 26.917438 14.027397 39.997038a303.295076 303.295076 0 0 0 15.164754 33.931137 111.840059 111.840059 0 0 0 79.235839 58.763421q32.225102 7.203258 63.691965 16.491669a110.892262 110.892262 0 0 1 44.925584 26.727879c-10.425768-2.274713-19.903739-4.928545-29.57127-6.44502-18.955942-3.22251-37.911884-5.307664-58.005184-9.098853a132.691596 132.691596 0 0 1-109.565346-90.609404z m191.834136 89.092929a61.038134 61.038134 0 0 1 18.955942 22.557571zM842.755142 840.12736c0-2.085154 1.137357-3.791188 1.706035-5.497223a119.043317 119.043317 0 0 0-13.26916-104.636801 71.463902 71.463902 0 0 0-27.675676-25.400963c-21.041096-11.563125-42.271751-22.747131-63.123287-34.310255-10.994447-6.065902-21.609774-12.700481-32.414662-18.955943v-1.137356a261.781562 261.781562 0 0 0 68.620511 24.453165c17.060348 3.980748 34.120696 7.392817 51.181044 11.752685a101.414291 101.414291 0 0 1 54.972233 30.898185 79.994076 79.994076 0 0 1 15.543873 28.054795 4.170307 4.170307 0 0 1-2.464273 6.065902 234.864124 234.864124 0 0 0-23.505368 12.700481l27.865235-7.771936c7.582377 32.225102-21.420215 75.823769-56.867827 83.785264z m108.617549-143.875601a7.013699 7.013699 0 0 1-1.326916 2.274713c-7.203258-11.184006-14.027397-22.747131-21.799334-33.552018a218.941133 218.941133 0 0 0-15.922991-16.681229 8.719733 8.719733 0 0 1-3.032951-3.791189 94.779711 94.779711 0 0 0-43.219548-71.084783 228.608663 228.608663 0 0 0-68.810071-33.931137 81.700111 81.700111 0 0 1-39.617919-27.675675 303.295076 303.295076 0 0 1-37.911884-65.966679c-3.791188-8.151055-6.63458-16.30211-9.85709-24.453166h0.947797a8.909293 8.909293 0 0 1 1.895594 1.895594 130.227323 130.227323 0 0 0 53.076638 43.977786 7.961496 7.961496 0 0 1 4.738986 4.549426A119.422436 119.422436 0 0 0 836.310121 550.101444a432.005924 432.005924 0 0 0 48.716772 18.955942c9.477971 3.601629 18.955942 6.44502 28.623473 10.04665a75.823769 75.823769 0 0 1 47.010737 60.659015 89.472047 89.472047 0 0 1-9.098853 58.005183zM86.413046 510.483525c10.994447-3.601629 22.368012-6.63458 33.362459-10.615328a55.351351 55.351351 0 0 0 36.01629-41.323954 77.150685 77.150685 0 0 0 0-33.552018 189.559422 189.559422 0 0 0-22.368012-56.867827 122.076268 122.076268 0 0 1-9.667531-95.917067 323.198815 323.198815 0 0 1 27.296557-62.36505c1.706035-3.601629 3.22251-7.392817 4.738986-10.994447a2.274713 2.274713 0 0 0-2.274713 0 273.723806 273.723806 0 0 0-37.911885 64.260644 127.004813 127.004813 0 0 0-7.771936 69.18919 210.979637 210.979637 0 0 0 18.955942 51.370603 165.485376 165.485376 0 0 1 14.596076 35.068493 46.821177 46.821177 0 0 1-27.106998 58.952981c-7.392817 3.41207-14.975194 6.255461-22.368011 9.288411s-20.661977 7.203258-30.519067 11.942244a40.755276 40.755276 0 0 0-23.12625 29.760829 11.373565 11.373565 0 0 1-0.947797 2.085154v22.557571c1.516475 6.63458 2.843391 13.26916 4.359867 18.955942a13.26916 13.26916 0 0 0 0.947797-5.876342 64.450204 64.450204 0 0 1 10.615327-35.068493 61.227693 61.227693 0 0 1 33.362459-21.799333z" p-id="3432" fill="#1296db"></path><path d="M595.948774 847.330618a99.139578 99.139578 0 0 0-17.060348-13.837838 254.388745 254.388745 0 0 0-223.11144-18.955942 9.85709 9.85709 0 0 1-10.425769-0.947797l-17.439467-12.890041c-22.557571-16.49167-44.925583-33.362458-67.862273-49.664568a116.389485 116.389485 0 0 0-20.661977-11.752684 10.046649 10.046649 0 0 0-12.510922 3.791188 88.903369 88.903369 0 0 0-18.955942 87.386894 377.033691 377.033691 0 0 1 9.85709 45.68382 117.337282 117.337282 0 0 1 0 22.936691c3.41207 0 6.824139-1.895594 10.425768-2.464273a94.779711 94.779711 0 0 1 22.557572-3.22251 576.639763 576.639763 0 0 1 124.350981 22.368012 269.743058 269.743058 0 0 1 94.779711 47.389855c11.752684 9.667531 21.988893 21.230655 32.79378 31.845983l17.249907-22.557571c19.903739-25.400963 40.186598-50.612366 59.711218-75.823769a317.701592 317.701592 0 0 0 18.955943-31.845983 13.458719 13.458719 0 0 0-3.032951-17.629026zM258.153883 564.128841c18.955942 5.497223 36.395409 11.942244 54.782673 17.629026a10.615328 10.615328 0 0 0 7.582377-0.947797 75.823769 75.823769 0 0 0 36.20585-42.271751l1.706034-4.359867h1.706035l-2.653832 50.422807a31.087745 31.087745 0 0 0 29.002592-21.230656 128.710848 128.710848 0 0 0 0-59.521658c-10.046649 7.582377-18.955942 14.975194-28.813032 21.799333a113.735653 113.735653 0 0 1-47.579415 22.368012 21.609774 21.609774 0 0 1-25.969641-20.661977 16.112551 16.112551 0 0 0-13.26916-17.629026 12.131803 12.131803 0 0 1-9.288411-14.027397v-5.686783l-2.653832-0.947797a16.870789 16.870789 0 0 1-12.510922-20.093299 22.557571 22.557571 0 0 0 0-6.065901 7.961496 7.961496 0 0 0-6.824139-9.098853 118.664198 118.664198 0 0 1-17.060348-6.824139 7.392817 7.392817 0 0 1-4.359867-9.288412c2.085154-10.425768 3.22251-21.041096 5.497223-31.656423a75.823769 75.823769 0 0 0-8.340614-55.540911 426.69826 426.69826 0 0 1-23.505369-51.939282 535.12625 535.12625 0 0 1-29.002591-88.334691c0-2.274713 0-4.738986-1.516476-8.340614a391.629767 391.629767 0 0 0-29.192151 63.502406 160.177712 160.177712 0 0 0-7.013699 27.675676 139.136616 139.136616 0 0 0 12.890041 78.66716c9.85709 20.851536 21.988893 40.755276 32.604221 61.227694a148.993706 148.993706 0 0 1 12.131803 29.002591 24.263606 24.263606 0 0 1-12.700481 30.898186 183.114402 183.114402 0 0 1-26.34876 9.85709c-13.458719 4.359867-27.296557 7.203258-40.376157 12.321363a69.378749 69.378749 0 0 0-47.010737 72.601259 232.96853 232.96853 0 0 0 13.837838 56.867826 303.295076 303.295076 0 0 1 11.752684 44.167346c2.843391 17.249907-5.118104 26.34876-22.557571 29.950388l-12.890041 1.706035a48.906331 48.906331 0 0 0 71.084784-24.263606 60.659015 60.659015 0 0 0 2.464272-31.277305c-2.843391-14.975194-6.824139-29.57127-9.85709-44.356904a35.637171 35.637171 0 0 1 21.988893-45.304702c14.785635-7.582377 30.898186-12.700481 46.442059-18.955943h3.412069c-9.85709 5.876342-20.093299 10.994447-29.38171 17.629027a71.084783 71.084783 0 0 0-30.519067 75.823769c2.464272 13.648278 7.203258 26.917438 10.615327 40.565716a43.788227 43.788227 0 0 1-22.74713 54.024435l-8.340615 4.738986h33.741577v-11.373565q3.41207-56.867827 6.445021-112.219178a76.961126 76.961126 0 0 1 17.818585-46.821178 59.332099 59.332099 0 0 1 37.911885-21.041096 132.691596 132.691596 0 0 1 60.848574 6.82414z m-6.824139-45.115142a47.579415 47.579415 0 0 1-36.20585 24.453165z" p-id="3433" fill="#1296db"></path></svg>